<?xml version="1.0" standalone="no"?>
<!DOCTYPE svg PUBLIC "-//W3C//DTD SVG 20010904//EN"
 "http://www.w3.org/TR/2001/REC-SVG-20010904/DTD/svg10.dtd">
<svg version="1.0" xmlns="http://www.w3.org/2000/svg"
 width="303.000000pt" height="303.000000pt" viewBox="0 0 303.000000 303.000000"
 preserveAspectRatio="xMidYMid meet">
<metadata>
Created by potrace 1.14, written by Peter Selinger 2001-2017
</metadata>
<g transform="translate(0.000000,303.000000) scale(0.100000,-0.100000)"
fill="#000000" stroke="none">
<path d="M1385 2133 c-353 -45 -668 -232 -874 -520 -87 -121 -171 -305 -196
-428 -18 -87 -30 -186 -30 -235 l0 -55 103 0 c57 -1 106 4 109 9 4 5 7 28 8
50 21 374 255 714 602 872 211 96 467 116 695 53 269 -75 501 -265 632 -519
45 -87 90 -220 101 -300 3 -25 8 -54 10 -65 2 -11 4 -38 4 -60 l1 -40 111 0
110 -1 -5 86 c-3 47 -8 96 -11 110 -3 14 -8 39 -10 55 -27 152 -114 348 -217
487 -113 152 -282 294 -447 378 -74 37 -248 96 -312 105 -24 4 -63 10 -85 14
-43 8 -245 11 -299 4z"/>
<path d="M1415 1708 c-253 -33 -485 -192 -608 -418 -44 -80 -85 -200 -92 -271
-3 -30 -8 -63 -10 -74 -8 -45 4 -50 118 -51 90 0 107 3 107 16 4 138 73 298
177 403 187 190 492 228 721 90 160 -97 266 -263 287 -450 l7 -58 102 1 c55 1
106 2 113 3 31 3 -11 217 -67 338 -50 108 -90 164 -176 248 -180 175 -426 256
-679 223z"/>
<path d="M1452 1279 c-154 -28 -282 -159 -312 -318 -6 -30 -8 -57 -5 -60 3 -3
50 -6 105 -6 l98 -1 6 36 c17 100 119 171 218 148 75 -16 131 -75 148 -153 l6
-29 98 -1 c114 0 114 0 90 92 -20 77 -37 111 -86 166 -88 101 -231 151 -366
126z"/>
</g>
</svg>
